<svg width="47" height="47" viewBox="0 0 47 47" fill="none" xmlns="http://www.w3.org/2000/svg">
<path d="M20.7123 45.7214C19.8738 45.1064 19.1673 44.2223 18.9691 43.1765C18.9617 42.962 18.9595 42.7473 18.9603 42.5328C18.9605 42.4409 18.9605 42.4409 18.9607 42.3472C18.9612 42.1524 18.9624 41.9576 18.9635 41.7629C18.964 41.6305 18.9644 41.498 18.9647 41.3656C18.9657 41.0418 18.9673 40.718 18.9691 40.3941C18.9087 40.3848 18.8483 40.3755 18.7861 40.3659C18.1803 40.2652 17.6203 40.1138 17.0451 39.9005C16.9191 39.8544 16.9191 39.8544 16.7905 39.8074C15.9621 39.4952 15.1774 39.1061 14.3966 38.6905C14.1897 38.5879 13.9788 38.5029 13.7635 38.4196C13.7234 38.4625 13.6833 38.5055 13.6419 38.5497C12.4792 39.7829 11.4655 40.7172 9.70222 40.7868C8.57473 40.7658 7.54464 40.3289 6.70113 39.5864C5.89871 38.7326 5.54681 37.5394 5.56802 36.3946C5.72199 34.7009 6.76466 33.6968 7.92962 32.5857C7.80804 32.2708 7.67109 31.9699 7.51907 31.6686C7.06011 30.7456 6.62052 29.8301 6.29725 28.8498C6.27224 28.774 6.24723 28.6981 6.22146 28.62C6.09139 28.207 6.01175 27.8106 5.95507 27.3801C5.83781 27.3836 5.83781 27.3836 5.71818 27.3872C5.42225 27.395 5.12643 27.4005 4.83043 27.4048C4.70344 27.407 4.57646 27.41 4.44951 27.414C3.18862 27.452 2.14034 27.1858 1.19822 26.3031C0.451285 25.5963 0.0292148 24.6466 0.000613261 23.6282C-0.015614 22.271 0.30782 21.3153 1.25046 20.3191C1.96366 19.6459 2.84889 19.2897 3.81645 19.2937C3.90832 19.2938 3.90832 19.2939 4.00205 19.294C4.19682 19.2945 4.39159 19.2957 4.58636 19.2968C4.71876 19.2973 4.85117 19.2977 4.98358 19.298C5.30741 19.299 5.63124 19.3006 5.95507 19.3024C5.96904 19.2118 5.96904 19.2118 5.9833 19.1194C6.08399 18.5136 6.23544 17.9537 6.44871 17.3784C6.49481 17.2524 6.49481 17.2524 6.54184 17.1239C6.854 16.2954 7.24313 15.5107 7.65874 14.73C7.76127 14.5231 7.8463 14.3121 7.92962 14.0968C7.86522 14.0366 7.86522 14.0366 7.79953 13.9753C6.56627 12.8125 5.63201 11.7988 5.56241 10.0355C5.58346 8.90804 6.02034 7.87795 6.76284 7.03445C7.61661 6.23203 8.80979 5.88013 9.95465 5.90133C11.6483 6.0553 12.6524 7.09798 13.7635 8.26293C14.0785 8.14135 14.3793 8.00441 14.6807 7.85238C15.6036 7.39342 16.5191 6.95384 17.4994 6.63057C17.6132 6.59305 17.6132 6.59305 17.7292 6.55477C18.1422 6.4247 18.5386 6.34506 18.9691 6.28839C18.9668 6.21021 18.9644 6.13204 18.962 6.05149C18.9542 5.75556 18.9487 5.45974 18.9445 5.16375C18.9422 5.03676 18.9392 4.90978 18.9353 4.78283C18.8972 3.52193 19.1634 2.47366 20.0461 1.53153C20.7529 0.784599 21.7027 0.362523 22.7211 0.333922C24.0782 0.317694 25.0339 0.641134 26.0301 1.58377C26.7034 2.29697 27.0595 3.1822 27.0556 4.14977C27.0554 4.24164 27.0554 4.24164 27.0552 4.33537C27.0547 4.53014 27.0535 4.7249 27.0524 4.91967C27.052 5.05208 27.0515 5.18448 27.0512 5.31689C27.0502 5.64073 27.0486 5.96456 27.0468 6.28839C27.1374 6.30236 27.1374 6.30236 27.2298 6.31661C27.8356 6.4173 28.3956 6.56875 28.9709 6.78202C29.0548 6.81275 29.1388 6.84349 29.2254 6.87515C30.0538 7.18731 30.8385 7.57644 31.6193 7.99205C31.8262 8.09458 32.0371 8.17961 32.2524 8.26293C32.292 8.22 32.3317 8.17707 32.3725 8.13284C33.1832 7.26419 33.9032 6.5214 35.0347 6.10888C35.1319 6.0714 35.1319 6.0714 35.2311 6.03316C36.2684 5.70467 37.3861 5.94859 38.337 6.41004C39.3378 6.97482 39.9193 7.75533 40.3196 8.8358C40.5572 9.74281 40.4783 10.7133 40.1506 11.5838C40.1089 11.6962 40.1089 11.6962 40.0664 11.8109C39.6435 12.7347 38.8127 13.4097 38.0863 14.0968C38.2079 14.4118 38.3448 14.7126 38.4968 15.014C38.9558 15.9369 39.3954 16.8524 39.7187 17.8327C39.7437 17.9086 39.7687 17.9844 39.7944 18.0626C39.9245 18.4755 40.0042 18.8719 40.0608 19.3024C40.1781 19.2989 40.1781 19.2989 40.2977 19.2953C40.5937 19.2876 40.8895 19.282 41.1855 19.2778C41.3125 19.2755 41.4394 19.2725 41.5664 19.2686C42.8273 19.2305 43.8756 19.4967 44.8177 20.3795C45.5646 21.0862 45.9867 22.036 46.0153 23.0544C46.0315 24.4116 45.7081 25.3672 44.7654 26.3634C44.0522 27.0367 43.167 27.3928 42.1995 27.3889C42.1076 27.3887 42.1076 27.3887 42.0139 27.3885C41.8191 27.388 41.6243 27.3869 41.4295 27.3857C41.2971 27.3853 41.1647 27.3849 41.0323 27.3845C40.7085 27.3835 40.3847 27.382 40.0608 27.3801C40.0515 27.4405 40.0422 27.5009 40.0326 27.5631C39.9319 28.1689 39.7805 28.7289 39.5672 29.3042C39.5365 29.3882 39.5057 29.4721 39.4741 29.5587C39.1619 30.3871 38.7728 31.1718 38.3572 31.9526C38.2546 32.1595 38.1696 32.3705 38.0863 32.5857C38.1292 32.6254 38.1721 32.665 38.2164 32.7058C39.085 33.5165 39.8278 34.2366 40.2403 35.368C40.2653 35.4328 40.2903 35.4976 40.3161 35.5644C40.6534 36.6296 40.3975 37.7836 39.9094 38.7506C39.3119 39.7726 38.396 40.3617 37.2729 40.7027C36.0857 40.8723 34.9689 40.7084 33.9426 40.0583C33.3293 39.5693 32.793 38.9864 32.2524 38.4196C31.9374 38.5412 31.6366 38.6781 31.3353 38.8301C30.4123 39.2891 29.4968 39.7287 28.5165 40.052C28.4406 40.077 28.3648 40.102 28.2867 40.1278C27.8737 40.2578 27.4773 40.3375 27.0468 40.3941C27.0491 40.4723 27.0515 40.5505 27.0539 40.631C27.0617 40.927 27.0672 41.2228 27.0714 41.5188C27.0737 41.6458 27.0767 41.7728 27.0806 41.8997C27.1187 43.1606 26.8525 44.2089 25.9698 45.151C24.6219 46.5755 22.336 46.7571 20.7123 45.7214ZM23.9952 43.1765C24.3747 42.6661 24.3669 42.1486 24.3598 41.5329C24.358 41.3052 24.3561 41.0775 24.3542 40.8429C23.4657 40.8429 22.5771 40.8429 21.6617 40.8429C21.658 41.0669 21.6543 41.2909 21.6505 41.5217C21.6488 41.5909 21.6472 41.6602 21.6455 41.7315C21.6412 42.2734 21.6934 42.7367 22.0599 43.1596C22.474 43.5131 22.7019 43.5754 23.2316 43.5639C23.5637 43.522 23.7491 43.3985 23.9952 43.1765ZM33.3294 33.932C33.3897 33.8782 33.45 33.8244 33.5121 33.769C34.0551 33.2567 34.5005 32.6445 34.945 32.0472C34.9833 31.9959 35.0216 31.9445 35.0611 31.8916C36.1446 30.4166 36.9205 28.7028 37.3683 26.9313C37.3869 26.8609 37.4055 26.7905 37.4247 26.7179C37.9806 24.5336 37.9655 21.9237 37.3683 19.7512C37.3451 19.6662 37.322 19.5813 37.2982 19.4937C36.5936 16.9998 35.3156 14.9302 33.5987 13.0198C33.5447 12.9592 33.4906 12.8985 33.435 12.8361C32.9224 12.2938 32.3109 11.8486 31.7139 11.4043C31.6625 11.3659 31.6112 11.3276 31.5583 11.2881C28.5301 9.0637 24.6369 8.16717 20.9338 8.68294C17.7472 9.1742 15.0602 10.6172 12.6865 12.7505C12.6258 12.8046 12.5652 12.8586 12.5028 12.9143C11.9605 13.4268 11.5152 14.0383 11.0709 14.6353C11.0326 14.6867 10.9943 14.738 10.9548 14.7909C9.87127 16.266 9.09541 17.9797 8.64763 19.7512C8.62902 19.8216 8.61041 19.892 8.59123 19.9646C8.03526 22.149 8.05045 24.7589 8.64763 26.9313C8.67077 27.0163 8.69391 27.1013 8.71775 27.1888C9.42227 29.6827 10.7003 31.7523 12.4172 33.6627C12.4712 33.7234 12.5253 33.784 12.5809 33.8465C13.0935 34.3887 13.705 34.834 14.302 35.2783C14.3534 35.3166 14.4047 35.355 14.4576 35.3945C20.315 39.6971 28.1129 38.6498 33.3294 33.932ZM37.3683 37.5221C37.6379 37.1345 37.7019 36.8223 37.6375 36.3553C37.3794 35.7467 36.8782 35.2515 36.381 34.8295C36.3218 34.8295 36.2625 34.8295 36.2015 34.8295C36.0668 34.9627 36.0668 34.9627 35.9266 35.138C35.4971 35.6432 35.0503 36.1654 34.4962 36.5348C34.7408 37.1059 35.254 37.5501 35.764 37.8867C36.4149 38.099 36.8629 37.9546 37.3683 37.5221ZM11.5197 36.7143C11.5197 36.6551 11.5197 36.5958 11.5197 36.5348C11.3865 36.4001 11.3865 36.4001 11.2112 36.2599C10.706 35.8304 10.1838 35.3836 9.81441 34.8295C9.24331 35.0741 8.79908 35.5873 8.46252 36.0973C8.33594 36.4854 8.29458 36.7895 8.46041 37.1736C8.69259 37.5825 8.90418 37.8232 9.36565 37.9708C10.2902 38.1078 10.9629 37.3703 11.5197 36.7143ZM42.8263 24.2893C43.1798 23.8752 43.2421 23.6473 43.2305 23.1176C43.1887 22.7855 43.0652 22.6001 42.8431 22.354C42.3328 21.9745 41.8153 21.9823 41.1996 21.9894C40.858 21.9922 40.858 21.9922 40.5096 21.995C40.5096 22.8835 40.5096 23.7721 40.5096 24.6875C40.7336 24.6912 40.9576 24.695 41.1883 24.6988C41.2576 24.7004 41.3268 24.702 41.3982 24.7037C41.9401 24.708 42.4034 24.6558 42.8263 24.2893ZM5.50631 24.6875C5.50631 23.799 5.50631 22.9105 5.50631 21.995C5.28233 21.9913 5.05834 21.9876 4.82756 21.9838C4.75831 21.9821 4.68906 21.9805 4.61771 21.9788C4.07583 21.9745 3.61253 22.0267 3.18959 22.3933C2.83612 22.8073 2.77377 23.0352 2.78535 23.5649C2.82725 23.897 2.95068 24.0824 3.17276 24.3285C3.68315 24.7081 4.20059 24.7003 4.81634 24.6932C5.15788 24.6904 5.15788 24.6904 5.50631 24.6875ZM36.7346 11.5284C36.7789 11.4837 36.8233 11.439 36.869 11.393C36.913 11.3505 36.9571 11.3079 37.0024 11.264C37.3739 10.8931 37.605 10.5467 37.6824 10.0243C37.6232 9.59475 37.4695 9.309 37.1888 8.98095C36.8012 8.71136 36.489 8.64728 36.022 8.71169C35.4006 8.97527 34.9505 9.48551 34.4962 9.96822C34.5958 10.267 34.669 10.3286 34.9057 10.5236C35.3782 10.9246 35.8562 11.3351 36.2015 11.853C36.4617 11.853 36.5576 11.7028 36.7346 11.5284ZM9.81441 11.853C9.94462 11.7212 10.069 11.5836 10.1902 11.4435C11.0641 10.4514 11.0641 10.4514 11.5197 10.1477C11.2751 9.57663 10.7619 9.13239 10.252 8.79583C9.86378 8.66925 9.55973 8.6279 9.17563 8.79373C8.7667 9.0259 8.52605 9.2375 8.37838 9.69896C8.30699 10.1808 8.40854 10.4644 8.67428 10.8538C8.96311 11.2155 9.28185 11.5534 9.63491 11.853C9.69414 11.853 9.75338 11.853 9.81441 11.853ZM24.3542 5.83963C24.3579 5.61564 24.3616 5.39165 24.3655 5.16088C24.3671 5.09163 24.3687 5.02237 24.3704 4.95102C24.3747 4.40914 24.3225 3.94584 23.956 3.5229C23.5419 3.16943 23.314 3.10709 22.7843 3.11867C22.4522 3.16057 22.2668 3.284 22.0207 3.50607C21.6412 4.01647 21.649 4.53391 21.6561 5.14966C21.6579 5.37735 21.6598 5.60504 21.6617 5.83963C22.5502 5.83963 23.4388 5.83963 24.3542 5.83963Z" fill="white"/>
<path d="M20.0461 35.1885C19.9744 35.1687 19.9028 35.149 19.8289 35.1286C17.7499 34.5365 16.0508 33.5282 14.4815 32.0472C14.4153 31.9868 14.3491 31.9264 14.2809 31.8642C12.6987 30.3661 11.7339 28.3796 11.1606 26.3031C11.1348 26.2114 11.1348 26.2114 11.1084 26.1178C10.6478 24.3929 10.6771 22.094 11.1606 20.3794C11.1804 20.3078 11.2002 20.2361 11.2206 20.1623C11.8127 18.0832 12.8209 16.3842 14.302 14.8148C14.3623 14.7486 14.4227 14.6825 14.485 14.6143C15.9831 13.032 17.9696 12.0673 20.0461 11.494C20.1378 11.4681 20.1378 11.4681 20.2313 11.4418C21.9562 10.9812 24.2551 11.0105 25.9697 11.494C26.0414 11.5138 26.113 11.5336 26.1869 11.554C28.2659 12.1461 29.965 13.1543 31.5343 14.6353C31.6005 14.6957 31.6667 14.7561 31.7349 14.8183C33.3171 16.3164 34.2819 18.303 34.8552 20.3795C34.8724 20.4406 34.8896 20.5017 34.9074 20.5647C35.368 22.2896 35.3387 24.5885 34.8552 26.3031C34.8255 26.4106 34.8255 26.4106 34.7952 26.5202C34.2031 28.5993 33.1949 30.2983 31.7138 31.8677C31.6534 31.9339 31.5931 32.0001 31.5308 32.0682C30.0327 33.6505 28.0462 34.6152 25.9697 35.1885C25.878 35.2144 25.878 35.2144 25.7845 35.2408C24.0596 35.7013 21.7607 35.672 20.0461 35.1885ZM27.0467 31.8284C27.1175 31.7951 27.1883 31.7618 27.2612 31.7275C27.7025 31.5122 28.0906 31.2659 28.4828 30.9702C28.3535 30.6757 28.1932 30.4768 27.9687 30.2477C27.9001 30.1773 27.8315 30.107 27.7608 30.0345C27.6865 29.9595 27.6123 29.8845 27.5358 29.8073C27.4594 29.7299 27.3831 29.6525 27.3044 29.5727C27.1428 29.4095 26.981 29.2464 26.8189 29.0837C26.5706 28.8336 26.3242 28.5817 26.0779 28.3297C25.9207 28.1714 25.7635 28.0132 25.6061 27.8552C25.5325 27.7793 25.4588 27.7034 25.3829 27.6252C25.3134 27.5562 25.2439 27.4873 25.1724 27.4163C25.1117 27.355 25.0511 27.2937 24.9886 27.2305C24.7749 27.0623 24.7749 27.0623 24.3542 27.2006C24.3542 28.9777 24.3542 30.7548 24.3542 32.5857C25.3171 32.5857 26.1872 32.2342 27.0467 31.8284ZM21.6616 32.5857C21.6616 30.8086 21.6616 29.0315 21.6616 27.2006C21.2383 27.061 21.2383 27.061 21.0192 27.2398C20.9548 27.3053 20.8904 27.3709 20.8241 27.4385C20.7505 27.5121 20.6768 27.5858 20.601 27.6617C20.5228 27.7427 20.4446 27.8236 20.3641 27.907C20.283 27.9889 20.202 28.0707 20.1185 28.1549C19.9032 28.3723 19.6895 28.5912 19.4762 28.8105C19.2582 29.0341 19.0386 29.2561 18.8192 29.4782C18.3889 29.9142 17.9604 30.3519 17.533 30.7907C17.6518 31.1471 17.8655 31.2302 18.1781 31.4021C18.2343 31.4334 18.2904 31.4648 18.3483 31.497C19.3716 32.0568 20.4762 32.5857 21.6616 32.5857ZM30.6368 28.8161C31.5024 27.7176 32.2524 26.1001 32.2524 24.6875C30.4753 24.6875 28.6982 24.6875 26.8672 24.6875C26.7279 25.1105 26.7279 25.1105 26.9052 25.33C26.9702 25.3943 27.0352 25.4587 27.1022 25.5251C27.1753 25.5987 27.2484 25.6723 27.3238 25.7482C27.4041 25.8264 27.4845 25.9046 27.5674 25.9851C27.6487 26.0661 27.7301 26.1472 27.814 26.2307C27.9862 26.4021 28.1593 26.5726 28.333 26.7424C28.5561 26.9603 28.7776 27.1799 28.9985 27.4C29.209 27.6096 29.4203 27.8183 29.6317 28.027C29.7115 28.106 29.7914 28.1851 29.8736 28.2666C29.9476 28.3388 30.0215 28.4111 30.0977 28.4855C30.1956 28.5815 30.1956 28.5815 30.2954 28.6795C30.4449 28.8354 30.4449 28.8354 30.6368 28.8161ZM15.9181 28.4855C15.992 28.4132 16.066 28.341 16.1422 28.2666C16.222 28.1875 16.3019 28.1084 16.3841 28.027C16.5066 27.906 16.5066 27.906 16.6315 27.7827C16.8044 27.6117 16.9769 27.4402 17.1491 27.2686C17.3701 27.0486 17.5926 26.8304 17.8156 26.6125C18.0277 26.4046 18.2379 26.1947 18.4484 25.9851C18.5288 25.9069 18.6092 25.8287 18.692 25.7482C18.7651 25.6746 18.8382 25.6009 18.9136 25.525C19.0111 25.4285 19.0111 25.4285 19.1106 25.33C19.2879 25.1105 19.2879 25.1105 19.1486 24.6875C17.3715 24.6875 15.5944 24.6875 13.7634 24.6875C13.9198 26.0947 14.4071 27.7263 15.379 28.8161C15.6477 28.8161 15.7285 28.6714 15.9181 28.4855ZM24.1635 24.0481C24.3151 23.6605 24.3236 23.303 24.2644 22.8925C24.0703 22.4971 23.8698 22.2464 23.4567 22.0847C23.004 22.0233 22.6641 22.0332 22.2506 22.2362C21.9491 22.5083 21.7789 22.6898 21.723 23.1018C21.6991 23.615 21.7542 23.9339 22.1104 24.3285C22.4548 24.6324 22.7955 24.6438 23.2379 24.6293C23.6564 24.569 23.8921 24.3556 24.1635 24.0481ZM32.2524 21.995C32.0892 20.5269 31.5805 19.0325 30.6368 17.8664C30.3423 17.9957 30.1434 18.1559 29.9143 18.3805C29.844 18.4491 29.7736 18.5177 29.7012 18.5884C29.5887 18.6998 29.5887 18.6998 29.4739 18.8133C29.3965 18.8897 29.3191 18.9661 29.2394 19.0448C29.0761 19.2064 28.9131 19.3682 28.7503 19.5303C28.5002 19.7786 28.2483 20.0249 27.9963 20.2713C27.838 20.4284 27.6798 20.5857 27.5218 20.743C27.4459 20.8167 27.37 20.8904 27.2918 20.9663C27.2229 21.0358 27.1539 21.1052 27.0829 21.1768C27.0216 21.2375 26.9603 21.2981 26.8972 21.3606C26.7289 21.5742 26.7289 21.5742 26.8672 21.995C28.6443 21.995 30.4214 21.995 32.2524 21.995ZM19.1486 21.995C19.2882 21.5717 19.2882 21.5717 19.1094 21.3526C19.0438 21.2882 18.9783 21.2238 18.9107 21.1575C18.8002 21.047 18.8002 21.047 18.6874 20.9343C18.6065 20.8562 18.5255 20.778 18.4421 20.6974C18.3603 20.6164 18.2785 20.5354 18.1942 20.4519C17.9769 20.2366 17.7579 20.0229 17.5386 19.8096C17.3151 19.5916 17.0931 19.372 16.8709 19.1525C16.4349 18.7223 15.9972 18.2938 15.5585 17.8664C15.1976 17.9867 15.1144 18.2115 14.9414 18.5283C14.9098 18.5854 14.8782 18.6424 14.8456 18.7012C14.2886 19.7181 13.7634 20.813 13.7634 21.995C15.5405 21.995 17.3176 21.995 19.1486 21.995ZM24.9966 19.4428C25.061 19.3772 25.1254 19.3116 25.1917 19.2441C25.2653 19.1704 25.339 19.0967 25.4148 19.0208C25.493 18.9398 25.5712 18.8589 25.6517 18.7755C25.7328 18.6937 25.8138 18.6119 25.8973 18.5276C26.1126 18.3102 26.3262 18.0913 26.5396 17.872C26.7576 17.6485 26.9772 17.4265 27.1966 17.2043C27.6268 16.7683 28.0553 16.3306 28.4828 15.8919C28.363 15.5325 28.1417 15.448 27.8265 15.2748C27.7697 15.2432 27.713 15.2116 27.6545 15.179C26.6592 14.6345 25.5029 14.0968 24.3542 14.0968C24.3542 15.8739 24.3542 17.651 24.3542 19.4819C24.7775 19.6216 24.7775 19.6216 24.9966 19.4428ZM21.5719 19.5717C21.686 19.4777 21.686 19.4777 21.6724 19.2667C21.6722 19.1712 21.672 19.0758 21.6718 18.9774C21.6718 18.8696 21.6718 18.7618 21.6718 18.6507C21.6713 18.5334 21.6709 18.4161 21.6704 18.2952C21.6702 18.1746 21.6701 18.054 21.67 17.9333C21.6697 17.6154 21.6688 17.2974 21.6678 16.9794C21.6669 16.6552 21.6665 16.3309 21.666 16.0067C21.665 15.37 21.6635 14.7334 21.6616 14.0968C21.534 14.1099 21.4065 14.1233 21.2789 14.1368C21.2079 14.1442 21.1369 14.1516 21.0637 14.1593C19.8422 14.3182 18.4899 14.9379 17.533 15.7123C17.6623 16.0074 17.8226 16.205 18.0485 16.4334C18.1174 16.5035 18.1863 16.5735 18.2573 16.6457C18.3691 16.7578 18.3691 16.7578 18.4831 16.8721C18.5597 16.9493 18.6363 17.0265 18.7152 17.106C18.8772 17.2689 19.0394 17.4315 19.2018 17.5939C19.4508 17.8433 19.6983 18.0941 19.9458 18.345C20.1033 18.5029 20.2608 18.6608 20.4184 18.8186C20.4926 18.894 20.5667 18.9695 20.6431 19.0472C20.7126 19.1161 20.7821 19.1851 20.8536 19.2561C20.9145 19.3172 20.9753 19.3783 21.038 19.4412C21.2245 19.6075 21.2245 19.6075 21.5719 19.5717Z" fill="white"/>
</svg>
